#!OML:ASF E:/inclinewalkrobotboard/Project1/Captureday1/Session1/subject1.ASF
:FULLY-SPECIFIED
:DEGREES
238
root 0 0 0 -4.233562397488386 -5.28055048728045 -0.1104651202234117
lowerback 9.856000683741211 1.4253338952741703 -0.46695637660794587
upperback -0.11828363228007474 1.8758927511672305 0.6790767928328663
thorax -5.656454893599679 0.9511734703019048 0.72124718332456
lowerneck -16.5195637305489 -2.6126800363088867 -1.528609346592612
upperneck 22.818911866268415 -3.435888566970684 0.5868266586940671
head 10.106909581679632 -1.6047057737833141 -0.015951458212145886
rclavicle -3.710006265926846E-15 4.567521811891118E-16
rhumerus -33.97844872226607 -22.209551873108943 -78.5020854593203
rradius 19.689591383917957
rwrist 7.106950103625315
rhand -17.89693011233806 25.871586470802235
rfingers 7.125020000000022
rthumb 8.364470108610172 -3.919515575047626
lclavicle -3.908985902182386E-15 -4.452121672613298E-16
lhumerus -38.482734997851175 8.341222316353292 79.61957250181838
lradius 21.349438503332564
lwrist 2.2863536264243227
lhand -26.412829327032096 23.583164399884794
lfingers 7.125020000000021
lthumb 0.13628530492816626 53.55276905192471
rfemur -13.175357661002556 1.7745807050692475 26.635838704955937
rtibia 70.86371425953696
rfoot 6.686999366019013 -3.1907198429538606
rtoes 15.494293877754858
lfemur -9.98625427257684 -2.8067651788390378 -23.86883588781535
ltibia 21.90913041623046
lfoot -9.276781078320077 -0.910444731942953
ltoes 7.941789627362148
239
root 0 0 0 -4.663583028939212 -4.575900591588169 0.7198834008560593
lowerback 11.24077519456651 0.7782956172598502 -1.5472662098871444
upperback 0.059001390916828406 0.8936231925630473 0.6619001861800875
thorax -6.283282351414257 0.4870825105525416 1.4449250223254364
lowerneck -17.242937473353066 -2.646707989641465 -1.6853784182502412
upperneck 19.04160723698756 -3.326880803319564 0.32014042389149777
head 8.969030681413003 -1.6279614771689874 -0.03621931214869328
rclavicle -3.0765833828840307E-15 1.148779205203434E-15
rhumerus -34.22590218039187 -22.573703752752337 -78.48363976941573
rradius 19.320104561286996
rwrist 7.492252446559655
rhand -17.826833666053933 25.86387879633564
rfingers 7.125020000000022
rthumb 8.432688825087222 -3.9209632842367625
lclavicle -2.979151437872794E-15 6.384938022585035E-16
lhumerus -37.557113706564415 7.7040778513404975 79.61550168778791
lradius 21.826611356286485
lwrist 2.4056194960582715
lhand -26.49510444038839 23.636271777738127
lfingers 7.12502000000002
lthumb 0.05577341647667655 53.60603077047848
rfemur -16.459155107325888 0.9447385272793627 25.289244016772457
rtibia 68.4660497515587
rfoot 1.9746410185312318 -3.7248029021937894
rtoes 12.916055729305478
lfemur -0.23133358699725726 -3.488601639768066 -26.857451042350597
ltibia 20.618236346104226
lfoot -14.755229405698117 0.21103661681421926
ltoes 1.8146560618885381
240
root 0 0 0 -4.593509730076922 -3.547306218411638 1.3276123699037972
lowerback 11.303299685017938 0.16986120831220652 -2.370314147926867
upperback 0.15416906674106134 -0.015426518746605833 0.7517986383495221
thorax -6.233493684689876 0.059463587813952445 2.134429499673754
lowerneck -17.74545852602144 -2.57506817676609 -1.9950602071072074
upperneck 18.073821479494068 -3.1376678265878515 0.23489714341709034
head 8.685209264606375 -1.5758598829524695 0.015434034863820223
rclavicle -2.553874679416312E-15 7.316789978179418E-16
rhumerus -34.21930535674487 -22.598471352334904 -78.46717034320531
rradius 19.405508113626745
rwrist 7.487935208500859
rhand -17.854119640267527 25.80405257675485
rfingers 7.125020000000023
rthumb 8.407522786276406 -3.994234597675735
lclavicle -2.522672419922869E-15 4.70332609284116E-16
lhumerus -36.084440207700545 6.4051065296504035 79.58381905321883
lradius 23.010760724608023
lwrist 2.9006546546235747
lhand -26.641791371850843 23.911035802991506
lfingers 7.125020000000018
lthumb -0.08745243374817413 53.87666652399282
rfemur -26.524504285553455 -0.1859448367560974 21.918596192868854
rtibia 63.822604926079514
rfoot -4.087100992143756 -6.088041968165868
rtoes 6.718259919632457
lfemur 4.213519565126949 -3.5548832009104423 -28.17826681472761
ltibia 20.27386375790241
lfoot -17.543307898179467 0.7784870389312006
ltoes -1.4106893270733742
241
root 0 0 0 -3.8597797530921434 -2.522867916752286 1.7617778760406915
lowerback 10.764441153499238 -0.35574058981210677 -3.0171990712130317
upperback 0.3420356026993697 -0.7898365639899221 0.9253290245643376
thorax -5.7062795634942205 -0.3044488940974164 2.792428401083376
lowerneck -17.32211299747111 -2.423741801453907 -2.149224886883581
upperneck 18.572405739451867 -2.8858589352368873 0.2525537644124687
head 8.719795317007287 -1.4670109376688791 0.07857281984806458
rclavicle -2.1557317965391383E-15 -1.5172720515853182E-16
rhumerus -34.310156967358026 -22.39244251861018 -78.580414231342
rradius 19.61059145425564
rwrist 7.422025507359829
rhand -17.91377733956665 25.805385169658834
rfingers 7.125020000000024
rthumb 8.349038005667412 -4.00391699649424
lclavicle -1.976772140394321E-15 -5.626072764650401E-16
lhumerus -33.24395833267622 3.498373967327184 79.44461909412422
lradius 25.819299490551685
lwrist 4.267014771024396
lhand -27.006574663228925 24.554402791071364
lfingers 7.125020000000012
lthumb -0.4393411293084091 54.523360941522114
rfemur -34.106752481712675 -0.3741795110570343 19.36483836420858
rtibia 57.65635828068935
rfoot -6.645266055217114 -8.507015190698763
rtoes 2.042285450866178
lfemur 5.684021754441997 -3.2533805581808783 -28.806575092013993
ltibia 20.232781480086885
lfoot -18.527063846693878 0.8812931796145915
ltoes -1.480109301594549
242
root 0 0 0 -2.5916050982460583 -1.4365413932712556 2.2634203846284735
lowerback 10.466602565973242 -0.8411937247699462 -3.768085680450854
upperback 0.5918243205750612 -1.506085531155562 1.123096595432034
thorax -5.203660948363729 -0.6423880919437881 3.51179415076478
lowerneck -16.615485362586348 -2.32770986123664 -2.0600069970722146
upperneck 18.960514333548065 -2.6813507192811925 0.05497503910552726
head 8.67061072123398 -1.395254673369475 0.024701980888075625
rclavicle -9.20057386220819E-16 -3.8492068190860205E-16
rhumerus -34.497272105274654 -22.27251311158105 -78.56491741658382
rradius 19.94753153764831
rwrist 7.139460018286937
rhand -18.0111191486495 25.638741915095764
rfingers 7.125020000000025
rthumb 8.255081576227134 -4.187658921081891
lclavicle -6.709430693923369E-16 -1.0943140081134308E-15
lhumerus -29.501778764984394 -0.41380626991764313 79.6681233604439
lradius 29.443090824779496
lwrist 6.362283713051932
lhand -27.61586255432124 25.663128003039088
lfingers 7.125020000000005
lthumb -1.0298906262416283 55.65548680577903
rfemur -34.838176582051155 0.4778052151735075 17.793732577391886
rtibia 48.309497193854014
rfoot -7.247698025081972 -9.718567276373703
rtoes 0.0044146582970301385
lfemur 6.371346708654346 -2.9522745102057506 -29.023517422474683
ltibia 20.088043003042465
lfoot -18.709616264258703 0.7216849867048283
ltoes -1.4181410147485174
